<svg width="48" height="48" viewBox="0 0 48 48" fill="none" xmlns="http://www.w3.org/2000/svg">
<g clip-path="url(#clip0_85_1877)">
<path d="M23.9998 47.9997C37.2546 47.9997 47.9997 37.2546 47.9997 23.9998C47.9997 10.7451 37.2546 0 23.9998 0C10.7451 0 0 10.7451 0 23.9998C0 37.2546 10.7451 47.9997 23.9998 47.9997Z" fill="#8DC5D6"/>
<mask id="mask0_85_1877" style="mask-type:luminance" maskUnits="userSpaceOnUse" x="0" y="0" width="48" height="48">
<path d="M23.9998 47.9997C37.2546 47.9997 47.9997 37.2546 47.9997 23.9998C47.9997 10.7451 37.2546 0 23.9998 0C10.7451 0 0 10.7451 0 23.9998C0 37.2546 10.7451 47.9997 23.9998 47.9997Z" fill="white"/>
</mask>
<g mask="url(#mask0_85_1877)">
<path d="M14.9972 24.8851C14.9972 28.8001 12.8491 28.9013 13.0019 31.4937C13.172 34.3646 15.416 34.3712 15.416 36.345C15.416 38.318 13.3524 40.5305 15.1806 42.6554C23.2187 42.6554 24.0032 42.6554 24.0032 42.6554V18.7146L14.9972 24.8851Z" fill="#2E576D"/>
<path d="M33.0021 24.7554C33.0021 28.6704 35.1505 28.7715 34.9974 31.3639C34.8276 34.2349 32.5837 34.2415 32.5837 36.2152C32.5837 38.1883 34.6469 40.4008 32.8191 42.5257C24.7805 42.5257 23.9961 42.5257 23.9961 42.5257V18.5852L33.0021 24.7554Z" fill="#2E576D"/>
<path d="M23.9999 30.6849C29.4264 30.6849 33.8255 26.2572 33.8255 20.7953C33.8255 15.3335 29.4264 10.9058 23.9999 10.9058C18.5734 10.9058 14.1743 15.3335 14.1743 20.7953C14.1743 26.2572 18.5734 30.6849 23.9999 30.6849Z" fill="#2E576D"/>
<path d="M35.4936 38.7718C33.9466 35.8432 23.9999 34.0054 23.9999 34.0054C23.9999 34.0054 14.0533 35.8432 12.5063 38.7718C11.3628 42.836 10.4062 47.9999 10.4062 47.9999H23.9999H37.5936C37.5936 47.9999 36.9474 42.463 35.4936 38.7718Z" fill="#F1C9A5"/>
<path d="M24 34.0054C24 34.0054 33.9466 35.8432 35.4936 38.7718C36.9478 42.463 37.5937 47.9999 37.5937 47.9999H24V34.0054Z" fill="#E4B692"/>
<path d="M26.7076 28.0513H21.292V37.1146H26.7076V28.0513Z" fill="#F1C9A5"/>
<path d="M26.7078 28.0513H24V37.1146H26.7078V28.0513Z" fill="#E4B692"/>
<path opacity="0.1" d="M21.292 32.2511C21.779 33.6492 23.7445 34.4506 25.1881 34.4506C25.7103 34.4506 26.2185 34.3631 26.7076 34.2029V28.0513H21.292V32.2511Z" fill="#DDAC8C"/>
<path d="M30.9624 22.3324C30.9624 16.6714 27.8451 13.4524 23.9997 13.4524C20.1544 13.4524 17.0371 16.6714 17.0371 22.3324C17.0371 27.9933 20.1544 32.583 23.9997 32.583C27.8448 32.583 30.9624 27.9937 30.9624 22.3324Z" fill="#F1C9A5"/>
<path d="M29.9026 26.2574C28.6404 26.1168 27.7883 24.6716 28.0021 23.0307C28.2133 21.3885 29.4086 20.1694 30.6714 20.309C31.933 20.4489 32.7838 21.8935 32.5709 23.5357C32.3591 25.1778 31.1648 26.396 29.9026 26.2574Z" fill="#E4B692"/>
<path d="M15.4785 23.5357C15.2653 21.8935 16.1164 20.4486 17.3773 20.309C18.6405 20.1694 19.8361 21.3885 20.048 23.0307C20.2608 24.6716 19.4081 26.1171 18.1469 26.2574C16.8843 26.396 15.6901 25.1778 15.4785 23.5357Z" fill="#F1C9A5"/>
<path d="M30.9626 22.3324C30.9626 16.6714 27.8454 13.4524 24 13.4524V32.583C27.845 32.583 30.9626 27.9937 30.9626 22.3324Z" fill="#E4B692"/>
<path d="M31.537 21.6934C31.537 21.6765 31.538 21.6603 31.538 21.6437C31.538 17.2523 28.565 12.6182 24.4036 12.6182C20.2423 12.6182 16.4692 17.252 16.4692 21.6434C16.4692 21.6603 16.4702 21.6765 16.4702 21.6931L31.537 21.6934Z" fill="#2E576D"/>
<path d="M37.5936 47.9999C37.5936 47.9999 36.9478 42.463 35.4936 38.7718C34.6451 37.1654 31.2716 35.8886 28.3963 35.062L23.9897 38.5208L19.4059 35.119C16.5761 35.9469 13.3352 37.2025 12.5063 38.7721C11.3628 42.8363 10.4062 48.0002 10.4062 48.0002H23.9999H37.5936V47.9999Z" fill="#FA582A"/>
</g>
</g>
<defs>
<clipPath id="clip0_85_1877">
<rect width="48" height="48" fill="white"/>
</clipPath>
</defs>
</svg>
